# xmcd
# 
# Track frame offsets:
#     150
#     18719
#     37709
#     56326
#     72336
#     89516
#     105629
#     122972
#     139421
#     163081
#     183893
#     201977
# 
# Disc length: 2911
# 
# Revision: 2
# Processed by: cddbd v1.5.2PL0 Copyright (c) Steve Scherf et al.
# Submitted via: fre:ac v1.0.17
# 
DISCID=aa0b5d0c
DTITLE=Hellbillies - Leite Etter Lykka
DYEAR=2010
DGENRE=Folk-Rock
TTITLE0=Sjuk
TTITLE1=Den Redde
TTITLE2=Stein I Skoen
TTITLE3=Leite Etter Lykka
TTITLE4=Spela Eit Spel
TTITLE5=Du Er Den
TTITLE6=Fordi Eg Glei
TTITLE7=Drivkvite Bein
TTITLE8=Kommunegrå
TTITLE9=Håp I Tome Glas
TTITLE10=Verste Strøket I By'n
TTITLE11=Dirkefri
EXTD=
EXTT0=
EXTT1=
EXTT2=
EXTT3=
EXTT4=
EXTT5=
EXTT6=
EXTT7=
EXTT8=
EXTT9=
EXTT10=
EXTT11=
PLAYORDER=
